<mxfile host="app.diagrams.net" modified="2023-09-03T09:28:21.137Z" agent="Mozilla/5.0 (Windows NT 10.0; Win64; x64) AppleWebKit/537.36 (KHTML, like Gecko) Chrome/116.0.0.0 Safari/537.36" etag="GgxngL1UPp_UyVSSYF0r" version="21.6.6" type="device" pages="2">
  <diagram name="Page-1" id="-x1rQi7dG0WxQ-_r-RhQ">
    <mxGraphModel dx="1194" dy="2270" grid="1" gridSize="10" guides="1" tooltips="1" connect="1" arrows="1" fold="1" page="1" pageScale="1" pageWidth="850" pageHeight="1100" math="0" shadow="0">
      <root>
        <mxCell id="0" />
        <mxCell id="1" parent="0" />
        <mxCell id="NI1XcI7PYZ9r-GpVawT1-5" value="" style="edgeStyle=orthogonalEdgeStyle;rounded=0;orthogonalLoop=1;jettySize=auto;html=1;" parent="1" source="NI1XcI7PYZ9r-GpVawT1-1" target="NI1XcI7PYZ9r-GpVawT1-3" edge="1">
          <mxGeometry relative="1" as="geometry" />
        </mxCell>
        <mxCell id="NI1XcI7PYZ9r-GpVawT1-1" value="感知" style="rounded=1;whiteSpace=wrap;html=1;fillColor=#33FF99;" parent="1" vertex="1">
          <mxGeometry x="140" y="190" width="120" height="60" as="geometry" />
        </mxCell>
        <mxCell id="NI1XcI7PYZ9r-GpVawT1-4" style="edgeStyle=orthogonalEdgeStyle;rounded=0;orthogonalLoop=1;jettySize=auto;html=1;exitX=0.5;exitY=1;exitDx=0;exitDy=0;entryX=0.5;entryY=1;entryDx=0;entryDy=0;" parent="1" source="NI1XcI7PYZ9r-GpVawT1-2" target="NI1XcI7PYZ9r-GpVawT1-1" edge="1">
          <mxGeometry relative="1" as="geometry">
            <Array as="points">
              <mxPoint x="560" y="320" />
              <mxPoint x="200" y="320" />
            </Array>
          </mxGeometry>
        </mxCell>
        <mxCell id="NI1XcI7PYZ9r-GpVawT1-7" value="传感器" style="edgeLabel;html=1;align=center;verticalAlign=middle;resizable=0;points=[];" parent="NI1XcI7PYZ9r-GpVawT1-4" vertex="1" connectable="0">
          <mxGeometry x="0.024" relative="1" as="geometry">
            <mxPoint as="offset" />
          </mxGeometry>
        </mxCell>
        <mxCell id="NI1XcI7PYZ9r-GpVawT1-2" value="行动" style="rounded=1;whiteSpace=wrap;html=1;fillColor=#33FF99;" parent="1" vertex="1">
          <mxGeometry x="500" y="190" width="120" height="60" as="geometry" />
        </mxCell>
        <mxCell id="NI1XcI7PYZ9r-GpVawT1-6" value="" style="edgeStyle=orthogonalEdgeStyle;rounded=0;orthogonalLoop=1;jettySize=auto;html=1;" parent="1" source="NI1XcI7PYZ9r-GpVawT1-3" target="NI1XcI7PYZ9r-GpVawT1-2" edge="1">
          <mxGeometry relative="1" as="geometry" />
        </mxCell>
        <mxCell id="NI1XcI7PYZ9r-GpVawT1-3" value="计划" style="ellipse;whiteSpace=wrap;html=1;fillColor=#FFFF99;" parent="1" vertex="1">
          <mxGeometry x="320" y="180" width="120" height="80" as="geometry" />
        </mxCell>
      </root>
    </mxGraphModel>
  </diagram>
  <diagram id="xrjvi4bqZW7vDQOlihGo" name="Page-2">
    <mxGraphModel dx="1194" dy="1170" grid="1" gridSize="10" guides="1" tooltips="1" connect="1" arrows="1" fold="1" page="1" pageScale="1" pageWidth="850" pageHeight="1100" math="0" shadow="0">
      <root>
        <mxCell id="0" />
        <mxCell id="1" parent="0" />
        <mxCell id="9SIYRg0LV1RDxC8XlKd5-5" value="" style="edgeStyle=orthogonalEdgeStyle;rounded=0;orthogonalLoop=1;jettySize=auto;html=1;exitX=0.25;exitY=0;exitDx=0;exitDy=0;" edge="1" parent="1" source="9SIYRg0LV1RDxC8XlKd5-3" target="9SIYRg0LV1RDxC8XlKd5-4">
          <mxGeometry relative="1" as="geometry" />
        </mxCell>
        <mxCell id="9SIYRg0LV1RDxC8XlKd5-14" style="edgeStyle=orthogonalEdgeStyle;rounded=0;orthogonalLoop=1;jettySize=auto;html=1;exitX=0.75;exitY=0;exitDx=0;exitDy=0;entryX=0.5;entryY=1;entryDx=0;entryDy=0;" edge="1" parent="1" source="9SIYRg0LV1RDxC8XlKd5-3" target="9SIYRg0LV1RDxC8XlKd5-12">
          <mxGeometry relative="1" as="geometry" />
        </mxCell>
        <mxCell id="9SIYRg0LV1RDxC8XlKd5-17" style="edgeStyle=orthogonalEdgeStyle;rounded=0;orthogonalLoop=1;jettySize=auto;html=1;exitX=0.25;exitY=1;exitDx=0;exitDy=0;entryX=0.5;entryY=0;entryDx=0;entryDy=0;" edge="1" parent="1" source="9SIYRg0LV1RDxC8XlKd5-3" target="9SIYRg0LV1RDxC8XlKd5-11">
          <mxGeometry relative="1" as="geometry" />
        </mxCell>
        <mxCell id="9SIYRg0LV1RDxC8XlKd5-18" style="edgeStyle=orthogonalEdgeStyle;rounded=0;orthogonalLoop=1;jettySize=auto;html=1;exitX=0.75;exitY=1;exitDx=0;exitDy=0;entryX=0.5;entryY=0;entryDx=0;entryDy=0;" edge="1" parent="1" source="9SIYRg0LV1RDxC8XlKd5-3" target="9SIYRg0LV1RDxC8XlKd5-10">
          <mxGeometry relative="1" as="geometry" />
        </mxCell>
        <mxCell id="9SIYRg0LV1RDxC8XlKd5-3" value="Agent智能体" style="rounded=0;whiteSpace=wrap;html=1;fillColor=#FF9999;" vertex="1" parent="1">
          <mxGeometry x="830" y="1760" width="120" height="60" as="geometry" />
        </mxCell>
        <mxCell id="9SIYRg0LV1RDxC8XlKd5-8" style="edgeStyle=orthogonalEdgeStyle;rounded=0;orthogonalLoop=1;jettySize=auto;html=1;exitX=0;exitY=0.25;exitDx=0;exitDy=0;entryX=1;entryY=0.5;entryDx=0;entryDy=0;" edge="1" parent="1" source="9SIYRg0LV1RDxC8XlKd5-4" target="9SIYRg0LV1RDxC8XlKd5-6">
          <mxGeometry relative="1" as="geometry" />
        </mxCell>
        <mxCell id="9SIYRg0LV1RDxC8XlKd5-9" style="edgeStyle=orthogonalEdgeStyle;rounded=0;orthogonalLoop=1;jettySize=auto;html=1;exitX=-0.008;exitY=0.617;exitDx=0;exitDy=0;entryX=1;entryY=0.5;entryDx=0;entryDy=0;exitPerimeter=0;" edge="1" parent="1" source="9SIYRg0LV1RDxC8XlKd5-4" target="9SIYRg0LV1RDxC8XlKd5-7">
          <mxGeometry relative="1" as="geometry" />
        </mxCell>
        <mxCell id="9SIYRg0LV1RDxC8XlKd5-4" value="记忆模块" style="rounded=0;whiteSpace=wrap;html=1;fillColor=#66FF66;" vertex="1" parent="1">
          <mxGeometry x="730" y="1620" width="120" height="60" as="geometry" />
        </mxCell>
        <mxCell id="9SIYRg0LV1RDxC8XlKd5-6" value="短期记忆" style="rounded=0;whiteSpace=wrap;html=1;fillColor=#FFFF99;" vertex="1" parent="1">
          <mxGeometry x="530" y="1530" width="120" height="60" as="geometry" />
        </mxCell>
        <mxCell id="9SIYRg0LV1RDxC8XlKd5-7" value="长期记忆" style="rounded=0;whiteSpace=wrap;html=1;fillColor=#FFFF99;" vertex="1" parent="1">
          <mxGeometry x="530" y="1700" width="120" height="60" as="geometry" />
        </mxCell>
        <mxCell id="9SIYRg0LV1RDxC8XlKd5-10" value="执行模块" style="rounded=0;whiteSpace=wrap;html=1;fillColor=#66FF66;" vertex="1" parent="1">
          <mxGeometry x="910" y="1880" width="120" height="60" as="geometry" />
        </mxCell>
        <mxCell id="9SIYRg0LV1RDxC8XlKd5-45" style="edgeStyle=orthogonalEdgeStyle;rounded=0;orthogonalLoop=1;jettySize=auto;html=1;exitX=0;exitY=1;exitDx=0;exitDy=0;entryX=0.5;entryY=0;entryDx=0;entryDy=0;" edge="1" parent="1" source="9SIYRg0LV1RDxC8XlKd5-11" target="9SIYRg0LV1RDxC8XlKd5-41">
          <mxGeometry relative="1" as="geometry">
            <Array as="points">
              <mxPoint x="740" y="1980" />
              <mxPoint x="590" y="1980" />
            </Array>
          </mxGeometry>
        </mxCell>
        <mxCell id="9SIYRg0LV1RDxC8XlKd5-46" style="edgeStyle=orthogonalEdgeStyle;rounded=0;orthogonalLoop=1;jettySize=auto;html=1;exitX=0.25;exitY=1;exitDx=0;exitDy=0;entryX=0.5;entryY=0;entryDx=0;entryDy=0;" edge="1" parent="1" source="9SIYRg0LV1RDxC8XlKd5-11" target="9SIYRg0LV1RDxC8XlKd5-43">
          <mxGeometry relative="1" as="geometry" />
        </mxCell>
        <mxCell id="9SIYRg0LV1RDxC8XlKd5-47" style="edgeStyle=orthogonalEdgeStyle;rounded=0;orthogonalLoop=1;jettySize=auto;html=1;exitX=0.5;exitY=1;exitDx=0;exitDy=0;" edge="1" parent="1" source="9SIYRg0LV1RDxC8XlKd5-11" target="9SIYRg0LV1RDxC8XlKd5-42">
          <mxGeometry relative="1" as="geometry" />
        </mxCell>
        <mxCell id="9SIYRg0LV1RDxC8XlKd5-48" style="edgeStyle=orthogonalEdgeStyle;rounded=0;orthogonalLoop=1;jettySize=auto;html=1;exitX=0.75;exitY=1;exitDx=0;exitDy=0;entryX=0.5;entryY=0;entryDx=0;entryDy=0;" edge="1" parent="1" source="9SIYRg0LV1RDxC8XlKd5-11" target="9SIYRg0LV1RDxC8XlKd5-44">
          <mxGeometry relative="1" as="geometry">
            <Array as="points">
              <mxPoint x="830" y="1980" />
              <mxPoint x="1010" y="1980" />
            </Array>
          </mxGeometry>
        </mxCell>
        <mxCell id="9SIYRg0LV1RDxC8XlKd5-11" value="工具箱" style="rounded=0;whiteSpace=wrap;html=1;fillColor=#66FF66;" vertex="1" parent="1">
          <mxGeometry x="740" y="1880" width="120" height="60" as="geometry" />
        </mxCell>
        <mxCell id="9SIYRg0LV1RDxC8XlKd5-22" value="" style="edgeStyle=orthogonalEdgeStyle;rounded=0;orthogonalLoop=1;jettySize=auto;html=1;exitX=0.25;exitY=0;exitDx=0;exitDy=0;" edge="1" parent="1" source="9SIYRg0LV1RDxC8XlKd5-12" target="9SIYRg0LV1RDxC8XlKd5-21">
          <mxGeometry relative="1" as="geometry" />
        </mxCell>
        <mxCell id="9SIYRg0LV1RDxC8XlKd5-25" style="edgeStyle=orthogonalEdgeStyle;rounded=0;orthogonalLoop=1;jettySize=auto;html=1;exitX=0.5;exitY=0;exitDx=0;exitDy=0;entryX=0.5;entryY=1;entryDx=0;entryDy=0;" edge="1" parent="1" source="9SIYRg0LV1RDxC8XlKd5-12" target="9SIYRg0LV1RDxC8XlKd5-23">
          <mxGeometry relative="1" as="geometry" />
        </mxCell>
        <mxCell id="9SIYRg0LV1RDxC8XlKd5-26" style="edgeStyle=orthogonalEdgeStyle;rounded=0;orthogonalLoop=1;jettySize=auto;html=1;exitX=0.75;exitY=0;exitDx=0;exitDy=0;entryX=0;entryY=0.5;entryDx=0;entryDy=0;" edge="1" parent="1" source="9SIYRg0LV1RDxC8XlKd5-12" target="9SIYRg0LV1RDxC8XlKd5-24">
          <mxGeometry relative="1" as="geometry" />
        </mxCell>
        <mxCell id="9SIYRg0LV1RDxC8XlKd5-28" style="edgeStyle=orthogonalEdgeStyle;rounded=0;orthogonalLoop=1;jettySize=auto;html=1;exitX=1;exitY=0;exitDx=0;exitDy=0;entryX=0;entryY=0.5;entryDx=0;entryDy=0;" edge="1" parent="1" source="9SIYRg0LV1RDxC8XlKd5-12" target="9SIYRg0LV1RDxC8XlKd5-27">
          <mxGeometry relative="1" as="geometry" />
        </mxCell>
        <mxCell id="9SIYRg0LV1RDxC8XlKd5-32" style="edgeStyle=orthogonalEdgeStyle;rounded=0;orthogonalLoop=1;jettySize=auto;html=1;exitX=1;exitY=0.5;exitDx=0;exitDy=0;" edge="1" parent="1" source="9SIYRg0LV1RDxC8XlKd5-12" target="9SIYRg0LV1RDxC8XlKd5-31">
          <mxGeometry relative="1" as="geometry" />
        </mxCell>
        <mxCell id="9SIYRg0LV1RDxC8XlKd5-12" value="决策模块" style="rounded=0;whiteSpace=wrap;html=1;fillColor=#66FF66;" vertex="1" parent="1">
          <mxGeometry x="920" y="1620" width="120" height="60" as="geometry" />
        </mxCell>
        <mxCell id="9SIYRg0LV1RDxC8XlKd5-20" style="edgeStyle=orthogonalEdgeStyle;rounded=0;orthogonalLoop=1;jettySize=auto;html=1;exitX=0;exitY=0.5;exitDx=0;exitDy=0;entryX=1;entryY=0.5;entryDx=0;entryDy=0;" edge="1" parent="1" source="9SIYRg0LV1RDxC8XlKd5-15" target="9SIYRg0LV1RDxC8XlKd5-3">
          <mxGeometry relative="1" as="geometry" />
        </mxCell>
        <mxCell id="9SIYRg0LV1RDxC8XlKd5-49" style="edgeStyle=orthogonalEdgeStyle;rounded=0;orthogonalLoop=1;jettySize=auto;html=1;exitX=0.5;exitY=0;exitDx=0;exitDy=0;entryX=0.75;entryY=1;entryDx=0;entryDy=0;dashed=1;" edge="1" parent="1" source="9SIYRg0LV1RDxC8XlKd5-15" target="9SIYRg0LV1RDxC8XlKd5-12">
          <mxGeometry relative="1" as="geometry" />
        </mxCell>
        <mxCell id="9SIYRg0LV1RDxC8XlKd5-15" value="感知模块" style="rounded=0;whiteSpace=wrap;html=1;fillColor=#66FF66;" vertex="1" parent="1">
          <mxGeometry x="1060" y="1760" width="120" height="60" as="geometry" />
        </mxCell>
        <mxCell id="9SIYRg0LV1RDxC8XlKd5-21" value="Chain of Thought" style="rounded=0;whiteSpace=wrap;html=1;fillColor=#E6E6E6;" vertex="1" parent="1">
          <mxGeometry x="800" y="1490" width="120" height="60" as="geometry" />
        </mxCell>
        <mxCell id="9SIYRg0LV1RDxC8XlKd5-23" value="Tree of Thought" style="whiteSpace=wrap;html=1;fillColor=#E6E6E6;" vertex="1" parent="1">
          <mxGeometry x="870" y="1380" width="120" height="60" as="geometry" />
        </mxCell>
        <mxCell id="9SIYRg0LV1RDxC8XlKd5-24" value="Think on Graph" style="whiteSpace=wrap;html=1;fillColor=#E6E6E6;" vertex="1" parent="1">
          <mxGeometry x="1030" y="1410" width="120" height="60" as="geometry" />
        </mxCell>
        <mxCell id="9SIYRg0LV1RDxC8XlKd5-27" value="Reflection" style="whiteSpace=wrap;html=1;fillColor=#E6E6E6;" vertex="1" parent="1">
          <mxGeometry x="1070" y="1500" width="120" height="60" as="geometry" />
        </mxCell>
        <mxCell id="9SIYRg0LV1RDxC8XlKd5-31" value="&lt;font style=&quot;font-size: 24px;&quot;&gt;...&lt;/font&gt;" style="whiteSpace=wrap;html=1;fillColor=#E6E6E6;" vertex="1" parent="1">
          <mxGeometry x="1090" y="1580" width="120" height="60" as="geometry" />
        </mxCell>
        <mxCell id="9SIYRg0LV1RDxC8XlKd5-39" value="" style="html=1;labelBackgroundColor=#ffffff;startArrow=none;startFill=0;startSize=6;endArrow=classic;endFill=1;endSize=6;jettySize=auto;orthogonalLoop=1;strokeWidth=1;dashed=1;fontSize=14;rounded=0;exitX=0;exitY=0.5;exitDx=0;exitDy=0;" edge="1" parent="1" source="9SIYRg0LV1RDxC8XlKd5-10">
          <mxGeometry width="60" height="60" relative="1" as="geometry">
            <mxPoint x="800" y="1970" as="sourcePoint" />
            <mxPoint x="860" y="1910" as="targetPoint" />
          </mxGeometry>
        </mxCell>
        <mxCell id="9SIYRg0LV1RDxC8XlKd5-40" value="" style="html=1;labelBackgroundColor=#ffffff;startArrow=none;startFill=0;startSize=6;endArrow=classic;endFill=1;endSize=6;jettySize=auto;orthogonalLoop=1;strokeWidth=1;dashed=1;fontSize=14;rounded=0;exitX=1;exitY=0.5;exitDx=0;exitDy=0;entryX=0;entryY=0.5;entryDx=0;entryDy=0;" edge="1" parent="1" source="9SIYRg0LV1RDxC8XlKd5-4" target="9SIYRg0LV1RDxC8XlKd5-12">
          <mxGeometry width="60" height="60" relative="1" as="geometry">
            <mxPoint x="920" y="1990" as="sourcePoint" />
            <mxPoint x="870" y="1990" as="targetPoint" />
          </mxGeometry>
        </mxCell>
        <mxCell id="9SIYRg0LV1RDxC8XlKd5-41" value="搜索模块" style="whiteSpace=wrap;html=1;" vertex="1" parent="1">
          <mxGeometry x="530" y="2040" width="120" height="60" as="geometry" />
        </mxCell>
        <mxCell id="9SIYRg0LV1RDxC8XlKd5-42" value="代码解释器" style="whiteSpace=wrap;html=1;" vertex="1" parent="1">
          <mxGeometry x="810" y="2040" width="120" height="60" as="geometry" />
        </mxCell>
        <mxCell id="9SIYRg0LV1RDxC8XlKd5-43" value="计算单元" style="whiteSpace=wrap;html=1;" vertex="1" parent="1">
          <mxGeometry x="670" y="2040" width="120" height="60" as="geometry" />
        </mxCell>
        <mxCell id="9SIYRg0LV1RDxC8XlKd5-44" value="&lt;font style=&quot;font-size: 24px;&quot;&gt;...&lt;/font&gt;" style="whiteSpace=wrap;html=1;" vertex="1" parent="1">
          <mxGeometry x="950" y="2040" width="120" height="60" as="geometry" />
        </mxCell>
      </root>
    </mxGraphModel>
  </diagram>
</mxfile>
